<?xml version="1.0" standalone="no"?>
<!DOCTYPE svg PUBLIC "-//W3C//DTD SVG 20010904//EN"
 "http://www.w3.org/TR/2001/REC-SVG-20010904/DTD/svg10.dtd">
<svg version="1.0" xmlns="http://www.w3.org/2000/svg"
 width="640.000000pt" height="640.000000pt" viewBox="0 0 640.000000 640.000000"
 preserveAspectRatio="xMidYMid meet">

<g transform="translate(0.000000,640.000000) scale(0.100000,-0.100000)"
fill="#aecaa1ff" stroke="none">
<path d="M0 3200 l0 -3200 3200 0 3200 0 0 3200 0 3200 -3200 0 -3200 0 0
-3200z m3555 2380 c343 -24 623 -65 882 -130 278 -70 514 -153 741 -262 l82
-39 -2 -677 -3 -677 -55 0 -55 0 -5 635 -5 635 -44 24 c-69 38 -273 118 -411
161 -377 118 -673 174 -1076 201 -247 17 -772 6 -989 -20 -445 -54 -842 -157
-1180 -306 l-120 -53 -5 -639 -5 -638 -57 -3 c-52 -3 -57 -1 -60 20 -2 13 -2
319 0 681 l2 657 83 41 c260 128 625 244 982 313 137 26 416 61 600 75 160 12
526 12 700 1z m-1025 -1093 c23 -18 215 -248 228 -274 9 -15 12 -143 12 -450
l0 -428 -117 -117 c-65 -65 -121 -118 -125 -118 -5 0 -8 234 -8 520 l0 520
-27 30 -28 30 -292 1 -292 0 -54 62 c-104 119 -185 222 -181 229 3 5 200 8
437 8 324 -1 436 -4 447 -13z m888 4 c-3 -10 -199 -251 -224 -275 -10 -11 -48
-15 -158 -15 l-145 -1 -119 142 c-66 79 -118 146 -115 151 6 11 765 9 761 -2z
m1026 -28 c19 -21 75 -87 125 -148 l91 -109 0 -273 0 -273 -404 0 -403 0 -118
143 -118 142 396 3 397 2 6 25 c3 14 4 57 2 95 -3 60 -7 73 -33 100 l-29 30
-284 0 c-162 0 -291 4 -301 10 -24 12 -241 270 -241 285 0 3 198 5 440 5 l439
0 35 -37z m-2037 -375 l23 -21 0 -454 c0 -249 -2 -453 -5 -453 -2 0 -47 44
-100 98 l-95 97 0 378 0 377 77 0 c65 0 80 -3 100 -22z m1242 -331 l111 -139
0 -81 c0 -79 1 -83 35 -119 l34 -38 293 0 293 0 118 -140 c64 -76 117 -141
117 -145 0 -3 -200 -5 -445 -5 l-445 0 -120 144 -120 145 0 267 c0 156 4 264
9 259 5 -6 59 -72 120 -148z m-676 -818 c28 -15 37 -28 37 -56 0 -20 -5 -23
-35 -23 -19 0 -35 5 -35 10 0 14 -123 13 -138 -2 -18 -18 -15 -103 4 -122 21
-22 129 -22 138 -1 5 14 56 21 68 9 10 -9 -11 -68 -29 -81 -10 -8 -49 -13 -98
-13 -69 0 -87 4 -115 23 -41 27 -64 86 -56 145 12 91 54 122 164 122 40 0 83
-5 95 -11z m155 -101 l3 -107 82 -3 82 -3 0 -30 0 -30 -117 -3 -118 -3 0 146
0 146 33 -3 32 -3 3 -107z m275 99 c3 -7 5 -52 5 -100 0 -48 3 -91 7 -97 9
-14 98 -13 113 2 8 8 12 47 12 110 l0 98 35 0 35 0 0 -114 c0 -107 -2 -117
-24 -143 -22 -25 -31 -28 -103 -31 -74 -4 -81 -2 -110 22 -26 22 -33 37 -38
81 -4 30 -4 84 0 120 6 63 7 65 35 65 15 0 30 -6 33 -13z m508 -14 c15 -15 22
-34 22 -64 0 -23 6 -54 13 -68 20 -38 17 -66 -10 -98 -24 -27 -27 -28 -145
-32 l-121 -3 0 147 0 147 110 -4 c96 -3 112 -6 131 -25z m1361 15 c8 -24 -20
-274 -41 -362 -117 -493 -445 -895 -1061 -1301 -221 -145 -632 -383 -833 -481
l-77 -38 -88 43 c-335 166 -853 482 -1097 671 -160 125 -419 386 -515 520
-127 179 -221 384 -270 587 -24 101 -54 327 -47 347 5 14 29 16 151 16 162 0
156 3 156 -83 0 -125 58 -381 119 -531 168 -411 575 -791 1276 -1193 127 -73
302 -163 317 -163 16 0 250 125 423 225 156 90 440 280 540 360 202 163 399
372 504 535 134 206 216 465 237 749 6 81 10 94 28 101 35 14 273 12 278 -2z
m-2832 -853 c0 -37 -15 -76 -80 -205 l-80 -160 -55 0 c-30 0 -55 3 -55 6 0 3
31 67 69 142 38 75 71 144 73 152 3 13 -16 15 -117 15 l-120 0 -3 33 c-6 63
-10 62 188 62 l180 0 0 -45z m258 -162 l2 -203 -55 0 -55 0 0 145 c0 95 -4
145 -10 145 -6 0 -23 -6 -38 -14 -15 -7 -37 -17 -50 -21 -22 -6 -23 -5 -20 50
l3 57 55 23 c39 17 71 23 110 22 l55 -2 3 -202z m692 185 c37 -19 47 -31 58
-65 19 -58 2 -114 -41 -144 -17 -13 -34 -24 -36 -26 -3 -2 19 -37 48 -78 l52
-75 -60 0 -60 0 -56 76 c-56 75 -56 75 -98 72 l-42 -3 -3 -72 -3 -73 -49 0
-50 0 0 205 0 205 148 0 c133 0 152 -2 192 -22z m240 -123 c0 -143 0 -145 25
-161 34 -22 132 -15 151 11 10 14 14 57 14 157 l0 138 50 0 50 0 0 -155 c0
-174 -7 -201 -63 -235 -26 -16 -50 -20 -133 -20 -89 0 -105 3 -135 23 -54 36
-59 55 -59 230 l0 157 50 0 50 0 0 -145z m735 120 c17 -16 25 -35 25 -59 0
-33 -1 -34 -47 -38 -38 -4 -51 -1 -62 14 -11 14 -27 18 -80 18 -71 0 -97 -10
-88 -33 3 -9 46 -22 122 -37 152 -30 170 -44 170 -130 0 -57 -2 -64 -33 -91
l-32 -29 -151 0 c-146 0 -151 1 -174 25 -19 18 -25 35 -25 70 l0 45 54 0 c49
0 55 -2 58 -22 3 -22 8 -23 92 -26 93 -3 108 3 99 38 -4 14 -26 22 -101 35
-158 28 -192 51 -192 131 0 45 27 89 64 104 11 5 79 9 149 9 123 1 129 0 152
-24z"/>
<path d="M3734 2875 c-11 -26 10 -36 67 -33 46 3 54 6 54 23 0 17 -8 20 -58
23 -45 2 -59 0 -63 -13z"/>
<path d="M3734 2765 c-14 -36 3 -46 73 -43 65 3 68 4 68 28 0 24 -3 25 -68 28
-53 2 -68 0 -73 -13z"/>
<path d="M3157 2044 c-4 -4 -7 -27 -7 -51 l0 -43 88 0 c96 0 112 7 112 52 0
21 -6 31 -22 37 -29 10 -161 14 -171 5z"/>
</g>
</svg>
